<?xml version="1.0" standalone="no"?>
<!DOCTYPE svg PUBLIC "-//W3C//DTD SVG 20010904//EN"
 "http://www.w3.org/TR/2001/REC-SVG-20010904/DTD/svg10.dtd">
<svg version="1.0" xmlns="http://www.w3.org/2000/svg"
 width="700.000000pt" height="700.000000pt" viewBox="0 0 700.000000 700.000000"
 preserveAspectRatio="xMidYMid meet">
<metadata>
Created by potrace 1.11, written by Peter Selinger 2001-2013
</metadata>
<g transform="translate(0.000000,700.000000) scale(0.100000,-0.100000)"
fill="#000000" stroke="none">
<path d="M3377 6414 c-1 -1 -47 -4 -102 -8 -55 -4 -120 -9 -145 -12 -43 -6
-294 -52 -315 -58 -5 -2 -23 -6 -40 -11 -418 -106 -837 -324 -1180 -615 -136
-115 -369 -373 -480 -531 -258 -369 -442 -831 -501 -1258 -3 -25 -8 -57 -10
-71 -17 -97 -23 -403 -11 -570 37 -541 238 -1078 572 -1525 108 -143 137 -177
275 -315 150 -150 223 -212 386 -327 355 -252 835 -444 1249 -498 28 -4 61 -9
75 -11 56 -9 224 -18 360 -18 133 1 326 11 339 18 3 2 35 7 70 10 36 4 67 8
70 10 3 2 28 7 54 10 60 8 249 57 359 92 288 93 579 244 833 431 135 100 189
147 330 288 281 279 497 608 645 979 44 110 106 299 116 350 8 46 12 63 22
101 12 46 39 198 46 266 16 145 19 200 19 354 0 217 -5 277 -40 495 -91 576
-374 1126 -799 1557 -101 102 -158 152 -329 291 -33 27 -217 148 -275 181 -54
32 -273 140 -360 179 -95 42 -338 119 -471 148 -115 25 -282 51 -394 60 -75 6
-363 13 -368 8z m333 -621 c232 -80 402 -283 436 -519 9 -62 6 -176 -6 -229
-24 -105 -86 -228 -152 -302 l-20 -21 92 -189 c51 -103 186 -377 299 -608 114
-231 249 -506 300 -610 l93 -190 87 -1 c275 -3 519 -179 606 -438 107 -319
-35 -658 -336 -801 -101 -48 -191 -65 -309 -60 -201 8 -363 92 -488 253 -143
184 -174 447 -78 659 30 64 67 124 104 165 l24 26 -80 164 c-138 282 -479 973
-595 1208 l-112 225 -81 2 -81 1 -66 -136 c-36 -75 -120 -249 -187 -387 -67
-137 -155 -317 -195 -400 -40 -82 -130 -267 -199 -409 -70 -142 -125 -260
-123 -262 2 -2 77 17 168 42 90 25 178 50 194 54 17 5 73 20 125 35 52 15 102
29 110 31 8 2 65 17 125 34 61 17 117 33 125 35 40 11 188 53 210 60 16 5 0
-12 -40 -44 -36 -29 -81 -65 -100 -80 -57 -46 -295 -234 -326 -258 -48 -37
-357 -283 -384 -306 -22 -19 -26 -31 -28 -82 -10 -294 -211 -543 -494 -614
-332 -82 -671 105 -777 429 -62 188 -34 399 73 560 77 116 199 212 323 255 90
31 123 37 217 39 58 1 81 5 88 16 8 14 244 497 393 805 79 164 255 524 329
675 25 52 46 98 46 102 0 5 -18 33 -40 62 -227 301 -153 730 164 940 164 108
378 135 566 69z"/>
</g>
</svg>
